<mxfile host="app.diagrams.net" agent="Mozilla/5.0 (Windows NT 10.0; Win64; x64) AppleWebKit/537.36 (KHTML, like Gecko) Chrome/131.0.0.0 Safari/537.36" version="25.0.3">
  <diagram name="페이지-1" id="yyX2MiVp8UT3gDi_et5P">
    <mxGraphModel dx="2347" dy="783" grid="1" gridSize="10" guides="1" tooltips="1" connect="1" arrows="1" fold="1" page="1" pageScale="1" pageWidth="827" pageHeight="1169" math="0" shadow="0">
      <root>
        <mxCell id="0" />
        <mxCell id="1" parent="0" />
        <mxCell id="TqI_4bw_E4HqG_7si0sr-1" value="Actor" style="shape=umlActor;verticalLabelPosition=bottom;verticalAlign=top;html=1;outlineConnect=0;" vertex="1" parent="1">
          <mxGeometry x="-790" y="30" width="30" height="60" as="geometry" />
        </mxCell>
        <mxCell id="TqI_4bw_E4HqG_7si0sr-6" value="" style="endArrow=open;endFill=1;endSize=12;html=1;rounded=0;" edge="1" parent="1">
          <mxGeometry width="160" relative="1" as="geometry">
            <mxPoint x="-810" y="160" as="sourcePoint" />
            <mxPoint x="-650" y="160" as="targetPoint" />
          </mxGeometry>
        </mxCell>
        <mxCell id="TqI_4bw_E4HqG_7si0sr-7" value="&amp;lt;&amp;lt;include&amp;gt;" style="endArrow=open;endSize=12;dashed=1;html=1;rounded=0;" edge="1" parent="1">
          <mxGeometry y="10" width="160" relative="1" as="geometry">
            <mxPoint x="-810" y="210" as="sourcePoint" />
            <mxPoint x="-650" y="210" as="targetPoint" />
            <mxPoint as="offset" />
          </mxGeometry>
        </mxCell>
        <mxCell id="TqI_4bw_E4HqG_7si0sr-8" value="&amp;lt;&amp;lt;extend&amp;gt;&amp;gt;" style="endArrow=open;endSize=12;dashed=1;html=1;rounded=0;" edge="1" parent="1">
          <mxGeometry y="10" width="160" relative="1" as="geometry">
            <mxPoint x="-810" y="250" as="sourcePoint" />
            <mxPoint x="-650" y="250" as="targetPoint" />
            <mxPoint as="offset" />
          </mxGeometry>
        </mxCell>
        <mxCell id="TqI_4bw_E4HqG_7si0sr-9" value="" style="endArrow=block;endSize=16;endFill=0;html=1;rounded=0;" edge="1" parent="1">
          <mxGeometry width="160" relative="1" as="geometry">
            <mxPoint x="-810" y="290" as="sourcePoint" />
            <mxPoint x="-650" y="290" as="targetPoint" />
          </mxGeometry>
        </mxCell>
        <mxCell id="TqI_4bw_E4HqG_7si0sr-10" value="규칙1. 연관 관계(실선 화살표)는&lt;div&gt;액터-&amp;gt;유스케이스 또는&lt;/div&gt;&lt;div&gt;유스케이스 -&amp;gt;액터&lt;/div&gt;&lt;div&gt;형식만 가능하다&amp;nbsp;&lt;/div&gt;" style="text;html=1;align=center;verticalAlign=middle;resizable=0;points=[];autosize=1;strokeColor=none;fillColor=none;" vertex="1" parent="1">
          <mxGeometry x="-610" y="15" width="200" height="70" as="geometry" />
        </mxCell>
        <mxCell id="TqI_4bw_E4HqG_7si0sr-11" value="Use Case" style="ellipse;whiteSpace=wrap;html=1;" vertex="1" parent="1">
          <mxGeometry x="-740" y="20" width="140" height="70" as="geometry" />
        </mxCell>
        <mxCell id="TqI_4bw_E4HqG_7si0sr-13" value="Actor" style="shape=umlActor;verticalLabelPosition=bottom;verticalAlign=top;html=1;outlineConnect=0;" vertex="1" parent="1">
          <mxGeometry x="-540" y="115" width="30" height="60" as="geometry" />
        </mxCell>
        <mxCell id="TqI_4bw_E4HqG_7si0sr-14" value="Use Case" style="ellipse;whiteSpace=wrap;html=1;" vertex="1" parent="1">
          <mxGeometry x="-440" y="110" width="140" height="70" as="geometry" />
        </mxCell>
        <mxCell id="TqI_4bw_E4HqG_7si0sr-15" value="" style="endArrow=open;endFill=1;endSize=12;html=1;rounded=0;exitX=0.5;exitY=0.5;exitDx=0;exitDy=0;exitPerimeter=0;" edge="1" parent="1" source="TqI_4bw_E4HqG_7si0sr-13" target="TqI_4bw_E4HqG_7si0sr-14">
          <mxGeometry width="160" relative="1" as="geometry">
            <mxPoint x="-510" y="149" as="sourcePoint" />
            <mxPoint x="-360" y="149.29" as="targetPoint" />
          </mxGeometry>
        </mxCell>
        <mxCell id="TqI_4bw_E4HqG_7si0sr-16" value="Use Case" style="ellipse;whiteSpace=wrap;html=1;" vertex="1" parent="1">
          <mxGeometry x="-595" y="220" width="140" height="70" as="geometry" />
        </mxCell>
        <mxCell id="TqI_4bw_E4HqG_7si0sr-17" value="" style="endArrow=open;endFill=1;endSize=12;html=1;rounded=0;" edge="1" parent="1">
          <mxGeometry width="160" relative="1" as="geometry">
            <mxPoint x="-455" y="254.5" as="sourcePoint" />
            <mxPoint x="-370" y="255" as="targetPoint" />
          </mxGeometry>
        </mxCell>
        <mxCell id="TqI_4bw_E4HqG_7si0sr-18" value="Actor" style="shape=umlActor;verticalLabelPosition=bottom;verticalAlign=top;html=1;outlineConnect=0;" vertex="1" parent="1">
          <mxGeometry x="-370" y="225" width="30" height="60" as="geometry" />
        </mxCell>
        <mxCell id="TqI_4bw_E4HqG_7si0sr-19" value="규칙2. 포함 ,확장 관계는&lt;div&gt;유스케이스 끼리만 가능하다!&lt;/div&gt;" style="text;html=1;align=center;verticalAlign=middle;resizable=0;points=[];autosize=1;strokeColor=none;fillColor=none;" vertex="1" parent="1">
          <mxGeometry x="-730" y="330" width="180" height="40" as="geometry" />
        </mxCell>
        <mxCell id="TqI_4bw_E4HqG_7si0sr-21" value="내정보 조회" style="ellipse;whiteSpace=wrap;html=1;" vertex="1" parent="1">
          <mxGeometry x="-790" y="420" width="140" height="70" as="geometry" />
        </mxCell>
        <mxCell id="TqI_4bw_E4HqG_7si0sr-22" value="로그인" style="ellipse;whiteSpace=wrap;html=1;" vertex="1" parent="1">
          <mxGeometry x="-510" y="420" width="140" height="70" as="geometry" />
        </mxCell>
        <mxCell id="TqI_4bw_E4HqG_7si0sr-23" value="&amp;lt;&amp;lt;include&amp;gt;" style="endArrow=open;endSize=12;dashed=1;html=1;rounded=0;exitX=1;exitY=0.5;exitDx=0;exitDy=0;entryX=0;entryY=0.5;entryDx=0;entryDy=0;" edge="1" parent="1" source="TqI_4bw_E4HqG_7si0sr-21" target="TqI_4bw_E4HqG_7si0sr-22">
          <mxGeometry y="10" width="160" relative="1" as="geometry">
            <mxPoint x="-640" y="454.23" as="sourcePoint" />
            <mxPoint x="-520" y="454" as="targetPoint" />
            <mxPoint as="offset" />
          </mxGeometry>
        </mxCell>
        <mxCell id="TqI_4bw_E4HqG_7si0sr-24" value="회원가입" style="ellipse;whiteSpace=wrap;html=1;" vertex="1" parent="1">
          <mxGeometry x="-790" y="515" width="140" height="70" as="geometry" />
        </mxCell>
        <mxCell id="TqI_4bw_E4HqG_7si0sr-25" value="프로필 사진&lt;div&gt;등록&lt;/div&gt;" style="ellipse;whiteSpace=wrap;html=1;" vertex="1" parent="1">
          <mxGeometry x="-510" y="515" width="140" height="70" as="geometry" />
        </mxCell>
        <mxCell id="TqI_4bw_E4HqG_7si0sr-26" value="&amp;lt;&amp;lt;extend&amp;gt;&amp;gt;" style="endArrow=open;endSize=12;dashed=1;html=1;rounded=0;entryX=1;entryY=0.5;entryDx=0;entryDy=0;exitX=0;exitY=0.5;exitDx=0;exitDy=0;" edge="1" parent="1" source="TqI_4bw_E4HqG_7si0sr-25" target="TqI_4bw_E4HqG_7si0sr-24">
          <mxGeometry y="10" width="160" relative="1" as="geometry">
            <mxPoint x="-510" y="550" as="sourcePoint" />
            <mxPoint x="-639.9999999999968" y="549.53" as="targetPoint" />
            <mxPoint as="offset" />
          </mxGeometry>
        </mxCell>
        <mxCell id="TqI_4bw_E4HqG_7si0sr-27" value="규칙3. 일반화 관계는&lt;div&gt;&lt;span style=&quot;white-space: pre;&quot;&gt;&#x9;&lt;/span&gt;&lt;span style=&quot;white-space: pre;&quot;&gt;&#x9;&lt;/span&gt;&lt;span style=&quot;white-space: pre;&quot;&gt;&#x9;&lt;/span&gt;&lt;span style=&quot;white-space: pre;&quot;&gt;&#x9;&lt;/span&gt;&lt;span style=&quot;white-space: pre;&quot;&gt;&#x9;&lt;/span&gt;&lt;span style=&quot;white-space: pre;&quot;&gt;&#x9;&lt;/span&gt;&lt;span style=&quot;white-space: pre;&quot;&gt;&#x9;&lt;/span&gt;&amp;nbsp; &amp;nbsp; &amp;nbsp;액터 끼리 또는 유스케이스 끼리만 가능하다!&lt;/div&gt;" style="text;html=1;align=center;verticalAlign=middle;resizable=0;points=[];autosize=1;strokeColor=none;fillColor=none;" vertex="1" parent="1">
          <mxGeometry x="-940" y="650" width="460" height="40" as="geometry" />
        </mxCell>
        <mxCell id="TqI_4bw_E4HqG_7si0sr-28" value="제목 검색" style="ellipse;whiteSpace=wrap;html=1;" vertex="1" parent="1">
          <mxGeometry x="-790" y="700" width="140" height="70" as="geometry" />
        </mxCell>
        <mxCell id="TqI_4bw_E4HqG_7si0sr-29" value="작성자 검색" style="ellipse;whiteSpace=wrap;html=1;" vertex="1" parent="1">
          <mxGeometry x="-790" y="830" width="140" height="70" as="geometry" />
        </mxCell>
        <mxCell id="TqI_4bw_E4HqG_7si0sr-30" value="게시글 검색" style="ellipse;whiteSpace=wrap;html=1;" vertex="1" parent="1">
          <mxGeometry x="-510" y="760" width="140" height="70" as="geometry" />
        </mxCell>
        <mxCell id="TqI_4bw_E4HqG_7si0sr-31" value="" style="endArrow=block;endSize=16;endFill=0;html=1;rounded=0;exitX=0.994;exitY=0.431;exitDx=0;exitDy=0;exitPerimeter=0;entryX=0;entryY=0.5;entryDx=0;entryDy=0;" edge="1" parent="1" source="TqI_4bw_E4HqG_7si0sr-29" target="TqI_4bw_E4HqG_7si0sr-30">
          <mxGeometry width="160" relative="1" as="geometry">
            <mxPoint x="-677" y="794.29" as="sourcePoint" />
            <mxPoint x="-517" y="794.29" as="targetPoint" />
          </mxGeometry>
        </mxCell>
        <mxCell id="TqI_4bw_E4HqG_7si0sr-32" value="" style="endArrow=block;endSize=16;endFill=0;html=1;rounded=0;exitX=1;exitY=0.598;exitDx=0;exitDy=0;exitPerimeter=0;entryX=0.012;entryY=0.336;entryDx=0;entryDy=0;entryPerimeter=0;" edge="1" parent="1" source="TqI_4bw_E4HqG_7si0sr-28" target="TqI_4bw_E4HqG_7si0sr-30">
          <mxGeometry width="160" relative="1" as="geometry">
            <mxPoint x="-650" y="760" as="sourcePoint" />
            <mxPoint x="-490" y="760" as="targetPoint" />
          </mxGeometry>
        </mxCell>
        <mxCell id="TqI_4bw_E4HqG_7si0sr-34" value="회원" style="shape=umlActor;verticalLabelPosition=bottom;verticalAlign=top;html=1;" vertex="1" parent="1">
          <mxGeometry x="-800" y="930" width="30" height="60" as="geometry" />
        </mxCell>
        <mxCell id="TqI_4bw_E4HqG_7si0sr-35" value="비회원" style="shape=umlActor;verticalLabelPosition=bottom;verticalAlign=top;html=1;" vertex="1" parent="1">
          <mxGeometry x="-800" y="1020" width="30" height="60" as="geometry" />
        </mxCell>
        <mxCell id="TqI_4bw_E4HqG_7si0sr-38" value="사용자" style="shape=umlActor;verticalLabelPosition=bottom;verticalAlign=top;html=1;" vertex="1" parent="1">
          <mxGeometry x="-610" y="960" width="30" height="60" as="geometry" />
        </mxCell>
        <mxCell id="TqI_4bw_E4HqG_7si0sr-39" value="" style="endArrow=block;endSize=16;endFill=0;html=1;rounded=0;entryX=0.5;entryY=0.5;entryDx=0;entryDy=0;entryPerimeter=0;" edge="1" parent="1" source="TqI_4bw_E4HqG_7si0sr-34" target="TqI_4bw_E4HqG_7si0sr-38">
          <mxGeometry width="160" relative="1" as="geometry">
            <mxPoint x="-760" y="980" as="sourcePoint" />
            <mxPoint x="-600" y="980" as="targetPoint" />
          </mxGeometry>
        </mxCell>
        <mxCell id="TqI_4bw_E4HqG_7si0sr-40" value="" style="endArrow=block;endSize=16;endFill=0;html=1;rounded=0;exitX=0.5;exitY=0.5;exitDx=0;exitDy=0;exitPerimeter=0;entryX=0.251;entryY=0.738;entryDx=0;entryDy=0;entryPerimeter=0;" edge="1" parent="1" source="TqI_4bw_E4HqG_7si0sr-35" target="TqI_4bw_E4HqG_7si0sr-38">
          <mxGeometry width="160" relative="1" as="geometry">
            <mxPoint x="-755" y="1049.41" as="sourcePoint" />
            <mxPoint x="-595" y="1049.41" as="targetPoint" />
          </mxGeometry>
        </mxCell>
        <mxCell id="TqI_4bw_E4HqG_7si0sr-41" value="" style="endArrow=open;endFill=1;endSize=12;html=1;rounded=0;exitX=0.5;exitY=0.5;exitDx=0;exitDy=0;exitPerimeter=0;" edge="1" parent="1" source="TqI_4bw_E4HqG_7si0sr-38" target="TqI_4bw_E4HqG_7si0sr-42">
          <mxGeometry width="160" relative="1" as="geometry">
            <mxPoint x="-580" y="990" as="sourcePoint" />
            <mxPoint x="-420" y="990" as="targetPoint" />
          </mxGeometry>
        </mxCell>
        <mxCell id="TqI_4bw_E4HqG_7si0sr-42" value="공지사항 조회" style="ellipse;whiteSpace=wrap;html=1;" vertex="1" parent="1">
          <mxGeometry x="-510" y="960" width="140" height="70" as="geometry" />
        </mxCell>
        <mxCell id="TqI_4bw_E4HqG_7si0sr-43" value="비회원" style="shape=umlActor;verticalLabelPosition=bottom;verticalAlign=top;html=1;" vertex="1" parent="1">
          <mxGeometry x="-800" y="1205" width="30" height="60" as="geometry" />
        </mxCell>
        <mxCell id="TqI_4bw_E4HqG_7si0sr-44" value="비회원은 회원가입시 이메일 인증을 해야한다&lt;div&gt;회원 가입시 프로필 사진을 등록할 수 있다.&lt;/div&gt;" style="text;html=1;align=center;verticalAlign=middle;resizable=0;points=[];autosize=1;strokeColor=none;fillColor=none;" vertex="1" parent="1">
          <mxGeometry x="-827" y="1155" width="260" height="40" as="geometry" />
        </mxCell>
        <mxCell id="TqI_4bw_E4HqG_7si0sr-45" value="&amp;lt;&amp;lt;include&amp;gt;" style="endArrow=open;endSize=12;dashed=1;html=1;rounded=0;entryX=0;entryY=0.5;entryDx=0;entryDy=0;exitX=1;exitY=0.5;exitDx=0;exitDy=0;" edge="1" parent="1" source="TqI_4bw_E4HqG_7si0sr-47" target="TqI_4bw_E4HqG_7si0sr-46">
          <mxGeometry y="10" width="160" relative="1" as="geometry">
            <mxPoint x="-510" y="1234.17" as="sourcePoint" />
            <mxPoint x="-400" y="1234.17" as="targetPoint" />
            <mxPoint as="offset" />
          </mxGeometry>
        </mxCell>
        <mxCell id="TqI_4bw_E4HqG_7si0sr-46" value="이메일인증" style="ellipse;whiteSpace=wrap;html=1;" vertex="1" parent="1">
          <mxGeometry x="-390" y="1200" width="90" height="70" as="geometry" />
        </mxCell>
        <mxCell id="TqI_4bw_E4HqG_7si0sr-47" value="회원가입" style="ellipse;whiteSpace=wrap;html=1;" vertex="1" parent="1">
          <mxGeometry x="-660" y="1200" width="140" height="70" as="geometry" />
        </mxCell>
        <mxCell id="TqI_4bw_E4HqG_7si0sr-48" value="" style="endArrow=open;endFill=1;endSize=12;html=1;rounded=0;entryX=0;entryY=0.5;entryDx=0;entryDy=0;exitX=0.5;exitY=0.5;exitDx=0;exitDy=0;exitPerimeter=0;" edge="1" parent="1" source="TqI_4bw_E4HqG_7si0sr-43" target="TqI_4bw_E4HqG_7si0sr-47">
          <mxGeometry width="160" relative="1" as="geometry">
            <mxPoint x="-777" y="1234.17" as="sourcePoint" />
            <mxPoint x="-617" y="1234.17" as="targetPoint" />
          </mxGeometry>
        </mxCell>
        <mxCell id="TqI_4bw_E4HqG_7si0sr-51" value="" style="endArrow=open;endFill=1;endSize=12;html=1;rounded=0;entryX=0.5;entryY=0.5;entryDx=0;entryDy=0;exitX=1;exitY=0.5;exitDx=0;exitDy=0;entryPerimeter=0;" edge="1" parent="1" source="TqI_4bw_E4HqG_7si0sr-46" target="TqI_4bw_E4HqG_7si0sr-52">
          <mxGeometry width="160" relative="1" as="geometry">
            <mxPoint x="-250" y="1234.3300000000002" as="sourcePoint" />
            <mxPoint x="-133" y="1235.16" as="targetPoint" />
          </mxGeometry>
        </mxCell>
        <mxCell id="TqI_4bw_E4HqG_7si0sr-52" value="Gmail서버" style="shape=umlActor;verticalLabelPosition=bottom;verticalAlign=top;html=1;" vertex="1" parent="1">
          <mxGeometry x="-140" y="1200" width="30" height="60" as="geometry" />
        </mxCell>
        <mxCell id="TqI_4bw_E4HqG_7si0sr-53" value="&amp;lt;&amp;lt;extend&amp;gt;&amp;gt;" style="endArrow=open;endSize=12;dashed=1;html=1;rounded=0;entryX=0.94;entryY=0.738;entryDx=0;entryDy=0;exitX=0;exitY=0.5;exitDx=0;exitDy=0;entryPerimeter=0;" edge="1" parent="1" source="TqI_4bw_E4HqG_7si0sr-54" target="TqI_4bw_E4HqG_7si0sr-47">
          <mxGeometry y="10" width="160" relative="1" as="geometry">
            <mxPoint x="-380" y="1300" as="sourcePoint" />
            <mxPoint x="-520" y="1300" as="targetPoint" />
            <mxPoint as="offset" />
          </mxGeometry>
        </mxCell>
        <mxCell id="TqI_4bw_E4HqG_7si0sr-54" value="프로필사진 등록" style="ellipse;whiteSpace=wrap;html=1;" vertex="1" parent="1">
          <mxGeometry x="-390" y="1280" width="110" height="70" as="geometry" />
        </mxCell>
        <mxCell id="TqI_4bw_E4HqG_7si0sr-57" value="사용자" style="shape=umlActor;verticalLabelPosition=bottom;verticalAlign=top;html=1;" vertex="1" parent="1">
          <mxGeometry x="-695" y="1380" width="30" height="60" as="geometry" />
        </mxCell>
        <mxCell id="TqI_4bw_E4HqG_7si0sr-58" value="" style="endArrow=open;endFill=1;endSize=12;html=1;rounded=0;exitX=0.5;exitY=0.5;exitDx=0;exitDy=0;exitPerimeter=0;" edge="1" parent="1" source="TqI_4bw_E4HqG_7si0sr-57" target="TqI_4bw_E4HqG_7si0sr-59">
          <mxGeometry width="160" relative="1" as="geometry">
            <mxPoint x="-665" y="1410" as="sourcePoint" />
            <mxPoint x="-505" y="1410" as="targetPoint" />
          </mxGeometry>
        </mxCell>
        <mxCell id="TqI_4bw_E4HqG_7si0sr-59" value="공지사항 조회" style="ellipse;whiteSpace=wrap;html=1;" vertex="1" parent="1">
          <mxGeometry x="-595" y="1380" width="140" height="70" as="geometry" />
        </mxCell>
        <mxCell id="TqI_4bw_E4HqG_7si0sr-60" value="회원" style="shape=umlActor;verticalLabelPosition=bottom;verticalAlign=top;html=1;" vertex="1" parent="1">
          <mxGeometry x="-725" y="1560" width="30" height="60" as="geometry" />
        </mxCell>
        <mxCell id="TqI_4bw_E4HqG_7si0sr-61" value="" style="endArrow=block;endSize=16;endFill=0;html=1;rounded=0;exitX=0.5;exitY=0.5;exitDx=0;exitDy=0;exitPerimeter=0;entryX=0.25;entryY=0.1;entryDx=0;entryDy=0;entryPerimeter=0;" edge="1" parent="1" source="TqI_4bw_E4HqG_7si0sr-43" target="TqI_4bw_E4HqG_7si0sr-57">
          <mxGeometry width="160" relative="1" as="geometry">
            <mxPoint x="-790" y="1338" as="sourcePoint" />
            <mxPoint x="-607" y="1292" as="targetPoint" />
          </mxGeometry>
        </mxCell>
        <mxCell id="TqI_4bw_E4HqG_7si0sr-62" value="" style="endArrow=block;endSize=16;endFill=0;html=1;rounded=0;exitX=0.5;exitY=0.5;exitDx=0;exitDy=0;exitPerimeter=0;" edge="1" parent="1" source="TqI_4bw_E4HqG_7si0sr-60">
          <mxGeometry width="160" relative="1" as="geometry">
            <mxPoint x="-755" y="1392.5" as="sourcePoint" />
            <mxPoint x="-680" y="1410" as="targetPoint" />
          </mxGeometry>
        </mxCell>
        <mxCell id="TqI_4bw_E4HqG_7si0sr-63" value="관리자" style="shape=umlActor;verticalLabelPosition=bottom;verticalAlign=top;html=1;" vertex="1" parent="1">
          <mxGeometry x="-810" y="1470" width="30" height="60" as="geometry" />
        </mxCell>
        <mxCell id="TqI_4bw_E4HqG_7si0sr-64" value="" style="endArrow=block;endSize=16;endFill=0;html=1;rounded=0;exitX=0.5;exitY=0.5;exitDx=0;exitDy=0;exitPerimeter=0;entryX=0.489;entryY=0.728;entryDx=0;entryDy=0;entryPerimeter=0;" edge="1" parent="1" source="TqI_4bw_E4HqG_7si0sr-63" target="TqI_4bw_E4HqG_7si0sr-57">
          <mxGeometry width="160" relative="1" as="geometry">
            <mxPoint x="-730" y="1519.33" as="sourcePoint" />
            <mxPoint x="-625" y="1519.33" as="targetPoint" />
          </mxGeometry>
        </mxCell>
        <mxCell id="TqI_4bw_E4HqG_7si0sr-65" value="회원은 내 정보를 조회할 수 있다&lt;div&gt;회원은 회원 탈퇴 할 수 있다.&lt;/div&gt;&lt;div&gt;회원은 내가 쓴 게시글 조회할 수있다.&lt;/div&gt;" style="text;html=1;align=center;verticalAlign=middle;resizable=0;points=[];autosize=1;strokeColor=none;fillColor=none;" vertex="1" parent="1">
          <mxGeometry x="-630" y="1463" width="220" height="60" as="geometry" />
        </mxCell>
        <mxCell id="TqI_4bw_E4HqG_7si0sr-70" value="내 정보 조회" style="ellipse;whiteSpace=wrap;html=1;" vertex="1" parent="1">
          <mxGeometry x="-370" y="1530" width="140" height="70" as="geometry" />
        </mxCell>
        <mxCell id="TqI_4bw_E4HqG_7si0sr-71" value="회원 탈퇴" style="ellipse;whiteSpace=wrap;html=1;" vertex="1" parent="1">
          <mxGeometry x="-370" y="1600" width="140" height="70" as="geometry" />
        </mxCell>
        <mxCell id="TqI_4bw_E4HqG_7si0sr-72" value="내가 쓴 게시글 조회" style="ellipse;whiteSpace=wrap;html=1;" vertex="1" parent="1">
          <mxGeometry x="-370" y="1670" width="140" height="70" as="geometry" />
        </mxCell>
        <mxCell id="TqI_4bw_E4HqG_7si0sr-73" value="마이 페이지" style="ellipse;whiteSpace=wrap;html=1;" vertex="1" parent="1">
          <mxGeometry x="-630" y="1555" width="140" height="70" as="geometry" />
        </mxCell>
        <mxCell id="TqI_4bw_E4HqG_7si0sr-74" value="" style="endArrow=open;endFill=1;endSize=12;html=1;rounded=0;" edge="1" parent="1" source="TqI_4bw_E4HqG_7si0sr-60">
          <mxGeometry width="160" relative="1" as="geometry">
            <mxPoint x="-715" y="1589.33" as="sourcePoint" />
            <mxPoint x="-625" y="1589.33" as="targetPoint" />
          </mxGeometry>
        </mxCell>
        <mxCell id="TqI_4bw_E4HqG_7si0sr-75" value="&amp;lt;&amp;lt;extend&amp;gt;&amp;gt;" style="endArrow=open;endSize=12;dashed=1;html=1;rounded=0;entryX=0.974;entryY=0.257;entryDx=0;entryDy=0;exitX=0;exitY=0.5;exitDx=0;exitDy=0;entryPerimeter=0;" edge="1" parent="1" source="TqI_4bw_E4HqG_7si0sr-70" target="TqI_4bw_E4HqG_7si0sr-73">
          <mxGeometry y="10" width="160" relative="1" as="geometry">
            <mxPoint x="-370" y="1564.33" as="sourcePoint" />
            <mxPoint x="-510" y="1564.33" as="targetPoint" />
            <mxPoint as="offset" />
          </mxGeometry>
        </mxCell>
        <mxCell id="TqI_4bw_E4HqG_7si0sr-76" value="&amp;lt;&amp;lt;extend&amp;gt;&amp;gt;" style="endArrow=open;endSize=12;dashed=1;html=1;rounded=0;entryX=1;entryY=0.5;entryDx=0;entryDy=0;exitX=0;exitY=0.5;exitDx=0;exitDy=0;" edge="1" parent="1" source="TqI_4bw_E4HqG_7si0sr-71" target="TqI_4bw_E4HqG_7si0sr-73">
          <mxGeometry y="10" width="160" relative="1" as="geometry">
            <mxPoint x="-360" y="1625" as="sourcePoint" />
            <mxPoint x="-500" y="1625" as="targetPoint" />
            <mxPoint as="offset" />
          </mxGeometry>
        </mxCell>
        <mxCell id="TqI_4bw_E4HqG_7si0sr-77" value="&amp;lt;&amp;lt;extend&amp;gt;&amp;gt;" style="endArrow=open;endSize=12;dashed=1;html=1;rounded=0;entryX=0.955;entryY=0.733;entryDx=0;entryDy=0;exitX=0.071;exitY=0.286;exitDx=0;exitDy=0;entryPerimeter=0;exitPerimeter=0;" edge="1" parent="1" source="TqI_4bw_E4HqG_7si0sr-72" target="TqI_4bw_E4HqG_7si0sr-73">
          <mxGeometry y="10" width="160" relative="1" as="geometry">
            <mxPoint x="-360" y="1700" as="sourcePoint" />
            <mxPoint x="-500" y="1700" as="targetPoint" />
            <mxPoint as="offset" />
          </mxGeometry>
        </mxCell>
        <mxCell id="TqI_4bw_E4HqG_7si0sr-78" value="자유게시판 목록 조회" style="ellipse;whiteSpace=wrap;html=1;" vertex="1" parent="1">
          <mxGeometry x="-630" y="1719" width="110" height="71" as="geometry" />
        </mxCell>
        <mxCell id="TqI_4bw_E4HqG_7si0sr-79" value="" style="endArrow=open;endFill=1;endSize=12;html=1;rounded=0;entryX=0.031;entryY=0.366;entryDx=0;entryDy=0;entryPerimeter=0;exitX=1;exitY=1;exitDx=0;exitDy=0;exitPerimeter=0;" edge="1" parent="1" source="TqI_4bw_E4HqG_7si0sr-60" target="TqI_4bw_E4HqG_7si0sr-78">
          <mxGeometry width="160" relative="1" as="geometry">
            <mxPoint x="-715" y="1690.67" as="sourcePoint" />
            <mxPoint x="-645" y="1690" as="targetPoint" />
          </mxGeometry>
        </mxCell>
        <mxCell id="TqI_4bw_E4HqG_7si0sr-80" value="자유게시판 글 작성" style="ellipse;whiteSpace=wrap;html=1;" vertex="1" parent="1">
          <mxGeometry x="-630" y="1808.33" width="110" height="61.67" as="geometry" />
        </mxCell>
        <mxCell id="TqI_4bw_E4HqG_7si0sr-81" value="" style="endArrow=open;endFill=1;endSize=12;html=1;rounded=0;entryX=0.031;entryY=0.366;entryDx=0;entryDy=0;entryPerimeter=0;exitX=1;exitY=1;exitDx=0;exitDy=0;exitPerimeter=0;" edge="1" parent="1" target="TqI_4bw_E4HqG_7si0sr-80" source="TqI_4bw_E4HqG_7si0sr-60">
          <mxGeometry width="160" relative="1" as="geometry">
            <mxPoint x="-715" y="1780" as="sourcePoint" />
            <mxPoint x="-645" y="1779.33" as="targetPoint" />
          </mxGeometry>
        </mxCell>
        <mxCell id="TqI_4bw_E4HqG_7si0sr-82" value="게시글 삭제" style="ellipse;whiteSpace=wrap;html=1;" vertex="1" parent="1">
          <mxGeometry x="-455" y="1890" width="120" height="61.67" as="geometry" />
        </mxCell>
        <mxCell id="TqI_4bw_E4HqG_7si0sr-85" value="자유 게시판 글 상세조회" style="ellipse;whiteSpace=wrap;html=1;" vertex="1" parent="1">
          <mxGeometry x="-640" y="1880" width="120" height="61.67" as="geometry" />
        </mxCell>
        <mxCell id="TqI_4bw_E4HqG_7si0sr-86" value="" style="endArrow=open;endFill=1;endSize=12;html=1;rounded=0;entryX=0.031;entryY=0.366;entryDx=0;entryDy=0;entryPerimeter=0;exitX=1;exitY=1;exitDx=0;exitDy=0;exitPerimeter=0;" edge="1" parent="1" target="TqI_4bw_E4HqG_7si0sr-85" source="TqI_4bw_E4HqG_7si0sr-60">
          <mxGeometry width="160" relative="1" as="geometry">
            <mxPoint x="-720" y="1720" as="sourcePoint" />
            <mxPoint x="-645" y="1949.33" as="targetPoint" />
          </mxGeometry>
        </mxCell>
        <mxCell id="TqI_4bw_E4HqG_7si0sr-87" value="&amp;lt;&amp;lt;extend&amp;gt;&amp;gt;" style="endArrow=open;endSize=12;dashed=1;html=1;rounded=0;entryX=1;entryY=0.5;entryDx=0;entryDy=0;exitX=0;exitY=0.5;exitDx=0;exitDy=0;" edge="1" parent="1" source="TqI_4bw_E4HqG_7si0sr-82" target="TqI_4bw_E4HqG_7si0sr-85">
          <mxGeometry y="10" width="160" relative="1" as="geometry">
            <mxPoint x="-384" y="2092.33" as="sourcePoint" />
            <mxPoint x="-520" y="2008.33" as="targetPoint" />
            <mxPoint as="offset" />
          </mxGeometry>
        </mxCell>
        <mxCell id="TqI_4bw_E4HqG_7si0sr-90" value="게시글 수정" style="ellipse;whiteSpace=wrap;html=1;" vertex="1" parent="1">
          <mxGeometry x="-460" y="1951.67" width="120" height="61.67" as="geometry" />
        </mxCell>
        <mxCell id="TqI_4bw_E4HqG_7si0sr-91" value="&amp;lt;&amp;lt;extend&amp;gt;&amp;gt;" style="endArrow=open;endSize=12;dashed=1;html=1;rounded=0;entryX=1;entryY=0.5;entryDx=0;entryDy=0;exitX=0;exitY=0.5;exitDx=0;exitDy=0;" edge="1" parent="1" source="TqI_4bw_E4HqG_7si0sr-90" target="TqI_4bw_E4HqG_7si0sr-85">
          <mxGeometry y="10" width="160" relative="1" as="geometry">
            <mxPoint x="-402" y="2154" as="sourcePoint" />
            <mxPoint x="-528" y="2070.67" as="targetPoint" />
            <mxPoint as="offset" />
          </mxGeometry>
        </mxCell>
        <mxCell id="TqI_4bw_E4HqG_7si0sr-92" value="로그인" style="ellipse;whiteSpace=wrap;html=1;" vertex="1" parent="1">
          <mxGeometry x="-810" y="1754" width="95" height="56" as="geometry" />
        </mxCell>
        <mxCell id="TqI_4bw_E4HqG_7si0sr-93" value="" style="endArrow=open;endFill=1;endSize=12;html=1;rounded=0;entryX=0.5;entryY=0;entryDx=0;entryDy=0;exitX=0;exitY=1;exitDx=0;exitDy=0;exitPerimeter=0;" edge="1" parent="1" source="TqI_4bw_E4HqG_7si0sr-60" target="TqI_4bw_E4HqG_7si0sr-92">
          <mxGeometry width="160" relative="1" as="geometry">
            <mxPoint x="-783" y="1642.5" as="sourcePoint" />
            <mxPoint x="-715" y="1767.5" as="targetPoint" />
          </mxGeometry>
        </mxCell>
      </root>
    </mxGraphModel>
  </diagram>
</mxfile>
